<?xml version="1.0" encoding="utf-8"?>
<!-- Generator: Adobe Illustrator 19.0.0, SVG Export Plug-In . SVG Version: 6.00 Build 0)  -->
<svg version="1.1" id="Calque_1" xmlns="http://www.w3.org/2000/svg" xmlns:xlink="http://www.w3.org/1999/xlink" x="0px" y="0px"
	 viewBox="0 0 820 160" style="enable-background:new 0 0 820 160;" xml:space="preserve">
<style type="text/css">
	.st0{fill:#FFCC00;}
</style>
<g id="XMLID_722_">
	<g id="XMLID_3_">
		<path id="XMLID_4_" d="M0.9,46h24.5v8.2h0.3c5.5-6.3,13.2-9.6,21.9-9.6c20,0,35.1,16.4,35.1,39.9c0,23.7-15.1,39.8-36.3,39.8
			c-8.8,0-15.6-3.1-20.6-9l-0.3,0.2V154H0.9V46z M57.9,84.5c0-11-7.1-18.2-16.5-18.2c-9.9,0-17,7.7-17,18.2c0,11,7.4,18.1,17.1,18.1
			C50.9,102.6,57.9,95.3,57.9,84.5z"/>
		<path id="XMLID_7_" d="M96.7,46h24.5v76.9H96.7V46z"/>
		<path id="XMLID_10_" d="M158,83.2L132.5,46h27.7l11.3,19h0.2l11.6-19h27.5l-25.5,37.4l25.9,39.5h-26.4l-13.1-19.2h-0.2l-13.2,19.2
			h-26.4L158,83.2z"/>
		<path id="XMLID_12_" d="M288.1,90.9h-52.4c1.6,8.8,9,13.4,18.4,13.4c6.3-0.2,12.7-2.5,17.9-8.3l14.2,14.5
			c-6.4,8-17.1,13.8-34.6,13.8c-23.3,0-40.3-16-40.3-39.9c0-23.3,16.4-39.8,39.6-39.8c21.7,0,37.6,16.2,37.6,39
			C288.5,85.7,288.2,89.4,288.1,90.9z M235.9,76.3h28.8c-1.6-7.5-6.6-12.3-14-12.3C243.1,64,237.4,68.6,235.9,76.3z"/>
		<path id="XMLID_15_" d="M302.4,7.1h24.5v115.7h-24.5V7.1z"/>
		<path id="XMLID_17_" d="M348.1,46.3h12.7v13.5h0.2c5.8-9.1,15.6-14.5,27.2-14.5c21.7,0,37.3,17.1,37.3,39.8
			c0,23.3-16.2,38.7-37.3,38.7c-12.1,0-21.5-5.3-27.2-14.2h-0.2V154h-12.7V46.3z M412.6,85.1c0-17-11.8-28.1-26.3-28.1
			c-15.6,0-26.1,12.4-26.1,28.1c0,16.2,11.6,27,26.3,27C401.9,112.2,412.6,100.5,412.6,85.1z"/>
		<path id="XMLID_20_" d="M439.6,85.1c0-22.6,15.6-39.8,37.3-39.8c11.3,0,21.2,5.3,26.7,14.6l0.3-0.2V46.3h12.7v76.6h-12.3V109h-0.2
			c-5.5,9.1-14.9,14.8-27.4,14.8C455.8,123.8,439.6,108.4,439.6,85.1z M504.4,85.1c0-15.7-10.5-28.1-25.6-28.1
			c-14.5,0-26.3,11.2-26.3,28.1c0,15.4,10.5,27,26.3,27C492.9,112.2,504.4,101.3,504.4,85.1z"/>
		<path id="XMLID_23_" d="M539.6,46.3h12.7v14h0.3c5.5-9.3,14.3-14.9,24.8-14.9c1.1,0,2,0,3.1,0.2v14.2c-1.9-0.2-3.8-0.3-5-0.3
			c-14.6,0-23.3,11.2-23.3,26.6v37h-12.7V46.3z"/>
		<path id="XMLID_25_" d="M598.3,57.3H589v-11h9.3V30.7c0-16.4,7.9-24.7,21.5-24.7c7.7,0,13.5,2.4,17.8,5l-2.8,10.8
			c-4.9-2.5-9.1-4.1-13.4-4.1c-6.3,0-10.4,4.1-10.4,14.2v14.3h21.7v11H611v65.6h-12.7V57.3z"/>
		<path id="XMLID_27_" d="M640.4,85.1c0-22.6,15.6-39.8,37.3-39.8c11.3,0,21.2,5.3,26.7,14.6l0.3-0.2V46.3h12.7v76.6h-12.3V109h-0.2
			c-5.5,9.1-14.9,14.8-27.4,14.8C656.6,123.8,640.4,108.4,640.4,85.1z M705.2,85.1c0-15.7-10.5-28.1-25.6-28.1
			c-14.5,0-26.3,11.2-26.3,28.1c0,15.4,10.5,27,26.3,27C693.7,112.2,705.2,101.3,705.2,85.1z"/>
		<path id="XMLID_30_" d="M741.4,46.3h12.7v76.6h-12.7V46.3z"/>
		<path id="XMLID_33_" d="M780.7,100V57.3h-9.9v-11h9.9V20.2l12.7-1.4v27.5h25.3v11h-25.3v40.9c0,9.3,2,13.7,9.3,13.7
			c4.6,0,9.3-1.9,13.1-3.9l3.3,11.2c-4.2,2.5-9.4,4.7-18.6,4.7C787,123.8,780.7,115.5,780.7,100z"/>
	</g>
	<rect id="XMLID_2_" x="96.7" y="7.1" class="st0" width="24.5" height="24.5"/>
	<rect id="XMLID_8_" x="741.9" y="19.4" width="12.3" height="12.3"/>
</g>
</svg>
